<?xml version="1.0" encoding="UTF-8" standalone="no"?>
<!-- Created with Inkscape (http://www.inkscape.org/) -->

<svg
   version="1.1"
   id="svg1"
   width="1366"
   height="768"
   viewBox="0 0 1366 768"
   xmlns="http://www.w3.org/2000/svg"
   xmlns:svg="http://www.w3.org/2000/svg">
  <defs
     id="defs1">
    <clipPath
       clipPathUnits="userSpaceOnUse"
       id="clipPath1">
      <path
         d="M 0,0 H 4268.75 V 2400 H 0 Z"
         transform="scale(0.31999999)"
         clip-rule="evenodd"
         id="path1" />
    </clipPath>
    <clipPath
       clipPathUnits="userSpaceOnUse"
       id="clipPath2">
      <path
         d="M 0,0 H 4268.75 V 2400 H 0 Z"
         transform="scale(0.31999999)"
         clip-rule="evenodd"
         id="path2" />
    </clipPath>
    <clipPath
       clipPathUnits="userSpaceOnUse"
       id="clipPath3">
      <path
         d="M 0,0 H 4068 V 2054 H 0 Z"
         transform="matrix(0.02433763,0,0,0.02433763,-0.01851863,-24.084578)"
         id="path3" />
    </clipPath>
    <clipPath
       clipPathUnits="userSpaceOnUse"
       id="clipPath4">
      <path
         d="m 2862.4548,0.09280396 h 493.0637 V 2054.5249 h -493.0637 z"
         transform="matrix(0.1159048,0,0,0.1159048,-331.84063,-0.01075637)"
         clip-rule="evenodd"
         id="path4" />
    </clipPath>
    <clipPath
       clipPathUnits="userSpaceOnUse"
       id="clipPath5">
      <path
         d="m 2862.4548,0.09280396 h 493.0637 V 2054.5249 h -493.0637 z"
         transform="matrix(0.1159048,0,0,0.1159048,-331.84063,-0.01075637)"
         clip-rule="evenodd"
         id="path5" />
    </clipPath>
    <clipPath
       clipPathUnits="userSpaceOnUse"
       id="clipPath6">
      <path
         d="M 0,0 H 4068 V 2054 H 0 Z"
         transform="matrix(0.02433763,0,0,0.02433763,-80.989294,-24.084578)"
         id="path6" />
    </clipPath>
    <clipPath
       clipPathUnits="userSpaceOnUse"
       id="clipPath7">
      <path
         d="M 0,0 H 4268.75 V 2400 H 0 Z"
         transform="matrix(0.31999999,0,0,0.31999999,0,2.6666667e-5)"
         clip-rule="evenodd"
         id="path7" />
    </clipPath>
  </defs>
  <g
     id="layer-oc1">
    <g
       id="g14">
      <path
         d="M 0,0 H 1366 V 768 H 0 Z"
         style="fill:#ffffff;fill-opacity:1;fill-rule:nonzero;stroke:none"
         transform="translate(0,2.6666667e-5)"
         clip-path="url(#clipPath1)"
         id="path8" />
      <path
         d="M 0,0 H 1366 V 768 H 0 Z"
         style="fill:#000000;fill-opacity:1;fill-rule:nonzero;stroke:none"
         transform="translate(0,2.6666667e-5)"
         clip-path="url(#clipPath2)"
         id="path9" />
      <g
         clip-path="url(#clipPath7)"
         id="g13">
        <path
           d="M 7.0005457,-21.468784 V -4.0830675 H 17.093293 V 1.3982079e-4 H 2.77117 V -21.468784 Z M 27.148013,-3.1204954 c 0.816701,0 1.662814,-0.2819385 2.538338,-0.8461128 l 1.808685,3.03388488 C 30.794498,-0.54442647 30.055337,-0.23337306 29.277555,1.3982079e-4 28.499476,0.2336527 27.760613,0.35070622 27.061263,0.35070622 c -1.51724,0 -2.825328,-0.2869891 -3.923967,-0.86037314 -1.098937,-0.57427528 -1.930492,-1.38146928 -2.49437,-2.42187908 -0.563283,-1.0401127 -0.844924,-2.2311472 -0.844924,-3.5734006 0,-1.2445107 0.325611,-2.3915759 0.976832,-3.4414926 0.651222,-1.0505108 1.54071,-1.8817688 2.669059,-2.4943688 1.128051,-0.612303 2.362758,-0.918603 3.70412,-0.918603 1.828293,0 3.330975,0.534762 4.507452,1.604287 1.176477,1.069524 1.939702,2.5962709 2.289971,4.579942 l -9.334573,2.9744668 c 0.62181,0.7201466 1.467625,1.0802198 2.53715,1.0802198 z m -0.320858,-7.0600506 c -0.913552,0 -1.642908,0.3113503 -2.187772,0.9340513 -0.544269,0.6221068 -0.816403,1.4581185 -0.816403,2.5086294 v 0.2626277 l 5.600744,-1.8966237 c -0.408796,-1.2055919 -1.274517,-1.8086847 -2.596569,-1.8086847 z m 23.795438,-2.566859 V 1.3982079e-4 H 46.538197 V -1.5744381 c -1.224903,1.28342955 -2.644102,1.92514432 -4.257896,1.92514432 -1.886523,0 -3.417726,-0.56387714 -4.594203,-1.69222562 -1.176477,-1.1280514 -1.764715,-2.800372 -1.764715,-5.0172588 0,-1.3998889 0.286692,-2.6298423 0.860373,-3.6898598 0.573384,-1.060018 1.336312,-1.881472 2.288783,-2.46466 0.953065,-0.583782 1.974164,-0.875822 3.063593,-0.875822 1.128052,0 2.02259,0.17053 2.683319,0.510995 0.661323,0.339871 1.244808,0.821157 1.750455,1.443858 l 0.262628,-1.313138 z m -7.175322,9.7718896 c 1.418903,0 2.449211,-0.6417147 3.090926,-1.9251443 v -3.1206351 c -0.232919,-0.6227011 -0.636367,-1.1185446 -1.209751,-1.4878276 -0.573681,-0.368986 -1.249561,-0.5537766 -2.027343,-0.5537766 -0.894539,0 -1.657764,0.3309589 -2.289971,0.9922817 -0.632208,0.6607285 -0.948312,1.4967403 -0.948312,2.507441 0,0.6616198 0.155675,1.2697634 0.467026,1.8241337 0.31135,0.5537761 0.724305,0.9863394 1.23946,1.2976899 0.515748,0.3107563 1.074872,0.4658373 1.677965,0.4658373 z M 63.623556,-13.38912 c 1.186578,0 2.246596,0.282236 3.180053,0.846113 0.93316,0.564174 1.66727,1.371368 2.202033,2.421879 0.534762,1.0499165 0.802143,2.2846232 0.802143,3.7041201 0,1.3998889 -0.296793,2.6105313 -0.890082,3.6316303 -0.592695,1.021396 -1.418903,1.79917805 -2.478921,2.33394036 -1.060017,0.53446522 -2.27066,0.80214346 -3.63163,0.80214346 -0.73916,0 -1.463763,-0.13131385 -2.173512,-0.39334738 -0.710045,-0.26292481 -1.298284,-0.63755552 -1.764715,-1.12418924 V 6.1261392 H 54.814238 V -13.038554 h 3.500911 l 0.349378,1.516349 c 1.555861,-1.244511 3.208871,-1.866915 4.959029,-1.866915 z m -1.632808,10.530064 c 1.010701,0 1.875828,-0.3303643 2.59538,-0.9910928 0.719255,-0.6613227 1.079032,-1.4976316 1.079032,-2.5086294 0,-1.0505109 -0.325611,-1.910884 -0.976833,-2.5811195 -0.651222,-0.6708296 -1.453365,-1.0065415 -2.40643,-1.0065415 -0.797093,0 -1.472973,0.1604287 -2.027344,0.4812861 -0.553776,0.3208574 -1.005947,0.8021435 -1.355919,1.4438583 v 3.1206351 c 0.213905,0.622701 0.597745,1.1188416 1.151521,1.4878276 0.554371,0.3692831 1.201433,0.5537761 1.940593,0.5537761 z m 0,0"
           style="fill:#ffffff;fill-opacity:1;fill-rule:nonzero;stroke:none"
           aria-label="Leap"
           transform="matrix(13.148365,0,0,13.148365,4.4034895,383.55285)"
           clip-path="url(#clipPath3)"
           id="path10" />
        <path
           d="M 48.310001,13.85 40.740002,43.049999 H 17.73 L 10.17,13.85 29.24,0 Z"
           style="fill:#ffffff;fill-opacity:1;fill-rule:nonzero;stroke:none"
           transform="matrix(2.7608864,0,0,2.7608864,920.33427,66.909721)"
           clip-path="url(#clipPath4)"
           id="path11" />
        <path
           d="M 58.48,216.02 29.24,237.27 0,216.02 18.219999,51.049999 h 22.039999 z"
           style="fill:#ffffff;fill-opacity:1;fill-rule:nonzero;stroke:none"
           transform="matrix(2.7608864,0,0,2.7608864,920.33427,66.909721)"
           clip-path="url(#clipPath5)"
           id="path12" />
        <path
           d="m 10.967259,-13.359411 c 1.205592,0 2.211837,0.359776 3.018436,1.079031 0.807194,0.719553 1.220744,1.633402 1.240649,2.7415485 V 1.3982079e-4 H 11.143137 V -8.0212948 c -0.05882,-1.2445108 -0.680931,-1.8669147 -1.8669151,-1.8669147 -0.9340515,0 -1.6833129,0.4379109 -2.24719,1.3131386 -0.563283,0.8746334 -0.8449245,2.0023877 -0.8449245,3.3832629 V 1.3982079e-4 H 2.0997117 V -12.747405 h 3.7053087 l 0.2911483,2.042792 c 0.4664316,-0.836606 1.1128998,-1.488125 1.9394047,-1.954854 0.827099,-0.466431 1.8042286,-0.699944 2.9316856,-0.699944 z m 0,0"
           style="fill:#ffffff;fill-opacity:1;fill-rule:nonzero;stroke:none"
           aria-label="n"
           transform="matrix(13.148365,0,0,13.148365,1069.0368,383.55285)"
           clip-path="url(#clipPath6)"
           id="path13" />
      </g>
    </g>
  </g>
</svg>
